<?xml version="1.0" encoding="UTF-8" standalone="no"?>
<svg width="95px" height="42px" viewBox="0 0 95 42" version="1.1" xmlns="http://www.w3.org/2000/svg" xmlns:xlink="http://www.w3.org/1999/xlink">
    <!-- Generator: Sketch 3.7.2 (28276) - http://www.bohemiancoding.com/sketch -->
    <title>footer-art</title>
    <desc>Created with Sketch.</desc>
    <defs>
        <circle id="path-1" cx="25" cy="11" r="11"></circle>
        <mask id="mask-2" maskContentUnits="userSpaceOnUse" maskUnits="objectBoundingBox" x="0" y="0" width="22" height="22" fill="white">
            <use xlink:href="#path-1"></use>
        </mask>
        <circle id="path-3" cx="48" cy="30" r="6"></circle>
        <mask id="mask-4" maskContentUnits="userSpaceOnUse" maskUnits="objectBoundingBox" x="0" y="0" width="12" height="12" fill="white">
            <use xlink:href="#path-3"></use>
        </mask>
        <circle id="path-5" cx="7" cy="28" r="4"></circle>
        <mask id="mask-6" maskContentUnits="userSpaceOnUse" maskUnits="objectBoundingBox" x="0" y="0" width="8" height="8" fill="white">
            <use xlink:href="#path-5"></use>
        </mask>
        <circle id="path-7" cx="71" cy="22" r="9"></circle>
        <mask id="mask-8" maskContentUnits="userSpaceOnUse" maskUnits="objectBoundingBox" x="0" y="0" width="18" height="18" fill="white">
            <use xlink:href="#path-7"></use>
        </mask>
    </defs>
    <g id="Page-1" stroke="none" stroke-width="1" fill="none" fill-rule="evenodd">
        <g id="Desktop-HD" transform="translate(-465.000000, -1232.000000)">
            <g id="footer-art" transform="translate(466.000000, 1232.000000)">
                <path d="M0,40.7824813 C6,18.7824813 21,27.7824817 27,30.7824818 C33,33.7824819 45,35.7824822 52,24.782482 C59,13.7824819 66,7.78248189 76,12.7824818 C86,17.7824817 79,25.8912411 93,30.7824821" id="Path-67" stroke="#A3EBFF" stroke-width="2" stroke-linecap="round" stroke-linejoin="round"></path>
                <path d="M1,23.9999991 C16,11.9999991 23,11.9999998 29,14.9999999 C35,18 42,26.0000002 49,15 C56,3.99999992 61,19.9999997 70,20.9999996 C79,21.9999996 76,8 91,10" id="Path-67-Copy" stroke="#FFACA3" stroke-width="2" stroke-linecap="round" stroke-linejoin="round"></path>
                <use id="Oval-90" stroke="#FFFFFF" mask="url(#mask-2)" stroke-width="4" xlink:href="#path-1"></use>
                <use id="Oval-90-Copy" stroke="#FFFFFF" mask="url(#mask-4)" stroke-width="4" xlink:href="#path-3"></use>
                <use id="Oval-90-Copy-3" stroke="#FFFFFF" mask="url(#mask-6)" stroke-width="4" xlink:href="#path-5"></use>
                <use id="Oval-90-Copy-2" stroke="#FFFFFF" mask="url(#mask-8)" stroke-width="4" xlink:href="#path-7"></use>
            </g>
        </g>
    </g>
</svg>